<svg width="1027" height="1061" viewBox="0 0 1027 1061" fill="none" xmlns="http://www.w3.org/2000/svg">
<g clip-path="url(#clip0)">
<path d="M960 445C960 666.997 798.145 851.215 586.01 886.067C561.875 890.024 537.457 892.008 513 892C454.296 892.012 396.164 880.459 341.926 858C287.687 835.54 238.406 802.615 196.895 761.105C155.385 719.594 122.46 670.313 100 616.074C77.5409 561.836 65.9875 503.705 66 445C66 198.134 266.134 -1.99948 513 -1.99948C606.299 -2.14234 697.283 27.0468 773.086 81.4405C886.259 162.524 960 295.147 960 445Z" fill="#FFD08A"/>
<path d="M537 1055C699.372 1055 831 1031.72 831 1003C831 974.281 699.372 951 537 951C374.628 951 243 974.281 243 1003C243 1031.72 374.628 1055 537 1055Z" fill="#3F3D56"/>
<path d="M811.391 1001C812.441 1004.57 812.928 1008.73 810.748 1011.75C809.544 1013.26 807.958 1014.42 806.154 1015.11C801.514 1016.93 796.521 1017.66 791.555 1017.25C790.604 1017.3 789.654 1017.14 788.765 1016.8C787.876 1016.46 787.068 1015.94 786.391 1015.27C774.869 1005.73 767.077 992.439 764.382 977.727C764.164 976.967 764.205 976.157 764.499 975.423C764.878 974.855 765.41 974.404 766.032 974.123C768.595 972.516 771.359 971.254 774.251 970.369C790.08 966.283 807.47 987.653 811.391 1001Z" fill="#2F2E41"/>
<path d="M636.312 964.906C633.637 966.77 630.602 968.052 627.402 968.67C625.8 968.965 624.152 968.894 622.582 968.462C621.011 968.03 619.559 967.249 618.333 966.177C614.731 962.693 614.969 956.807 616.548 952.051C619.469 943.256 625.818 936.284 632.611 930.23C634.761 928.315 639.972 922.31 643.016 923C644.462 923.328 648.494 929.91 649.698 931.275C654.099 936.262 657.126 939.799 654.234 946.462C651.008 953.893 642.958 960.665 636.312 964.906Z" fill="#2F2E41"/>
<path d="M693.634 568.575C717.056 566.759 739.429 567.432 762.894 566.227C764.865 566.126 763.915 588.698 765.958 600.955C767.008 607.255 802.328 976.294 797.944 977.042C786.687 979.398 775.3 981.084 763.843 982.093C759.196 982.502 715.876 742.044 717.952 722.503C712.28 730.821 692.304 769.229 682.203 813.408C668.875 871.699 661.284 946.198 653 942.5C644 945.5 639.355 937.437 631 933.934C617.308 928.842 644.24 631.894 667.685 619.003C667.973 610.796 668.274 602.387 671.367 594.78C675.73 584.05 684.337 575.483 693.634 568.575Z" fill="#2F2E41"/>
<path d="M699.405 389.576C711.562 369.035 735.613 368.077 735.613 368.077C735.613 368.077 759.049 365.08 774.084 396.365C788.097 425.524 807.437 453.678 777.197 460.505L771.735 443.504L768.352 461.77C764.047 462.08 759.728 462.154 755.414 461.991C723.03 460.946 692.189 462.297 693.182 450.676C694.502 435.228 687.708 409.34 699.405 389.576Z" fill="#2F2E41"/>
<path d="M744.252 459.561C744.193 461.874 744.211 464.312 745.36 466.319C747.637 470.298 753.198 470.894 756.542 474.03C760.059 477.329 760.457 482.681 760.625 487.5C760.8 492.538 760.949 497.741 759.11 502.435C757.984 505.021 756.561 507.467 754.869 509.723C752.827 512.666 750.766 515.596 748.686 518.513C747.575 520.156 746.338 521.71 744.984 523.159C741.26 526.953 736.151 529.053 731.05 530.551C727.754 531.52 724.195 532.274 720.925 531.222C718.762 530.378 716.767 529.151 715.038 527.602C712.51 525.789 710.264 523.612 708.373 521.142C705.627 517.159 704.867 512.173 704.298 507.368C702.615 493.161 701.961 478.851 702.339 464.55C702.27 462.992 702.549 461.438 703.156 460.001C704.85 456.694 709.386 455.988 711.776 453.143C713.819 450.711 713.903 447.24 713.885 444.064L713.841 435.978C713.77 435.296 713.907 434.609 714.234 434.007C714.53 433.683 714.888 433.421 715.286 433.235C715.684 433.049 716.115 432.944 716.553 432.925C721.579 432.091 726.675 431.75 731.767 431.907C735.895 432.033 743.817 431.688 747.387 433.987C750.627 436.075 746.57 441.839 745.819 445.077C744.81 449.84 744.285 454.693 744.252 459.561V459.561Z" fill="#FFB8B8"/>
<path d="M734.776 445.675C716.725 445.675 702.091 431.041 702.091 412.99C702.091 394.939 716.725 380.305 734.776 380.305C752.828 380.305 767.461 394.939 767.461 412.99C767.461 431.041 752.828 445.675 734.776 445.675Z" fill="#FFB8B8"/>
<path d="M742.178 483.677C759.047 430.217 767.935 505.305 778.571 525.808C778.472 539.943 778.089 579.041 774.783 593.86C761.941 651.427 698.341 646.908 679.216 598.357C669.028 572.495 691.628 508.399 690.862 478.492C718.87 450.113 720.598 540.145 742.178 483.677Z" fill="#87B9F3"/>
<path d="M760.696 465.34C797.249 483.106 779.81 530.838 793.06 562.076C803.642 604.933 830.554 618.41 769.022 619.408C755.764 580.234 768.714 537.682 750.637 497.793C749.392 482.17 744.034 476.295 744.509 463.065C748.053 457.575 757.235 463.639 760.696 465.34Z" fill="#1E508D"/>
<path d="M704.78 387.596L728.541 375.149L761.355 380.241L768.143 410.227L751.243 409.576L746.523 398.559V409.393L738.725 409.094L734.198 391.556L731.37 410.227L703.648 409.66L704.78 387.596Z" fill="#2F2E41"/>
<path d="M719.477 480.386C700.663 478.19 719.005 455.596 704.072 455.98C659.357 448.459 645.98 476.154 662.985 514.809C678.573 545.77 623.431 589.263 654.236 606.588C665.169 610.601 680.824 623.224 691.508 617.728C708.662 574.613 709.282 525.351 719.477 480.386Z" fill="#1E508D"/>
<path d="M667.112 603.471C673.663 606.604 678.844 611.586 683.229 617.374C684.158 618.599 682.913 620.884 680.131 620.847C677.542 620.812 675.996 617.493 673.408 617.458C672.616 624.376 671.184 631.206 669.129 637.859C663.965 633.324 660.873 626.941 657.915 620.738L652.067 608.477C649.92 603.976 647.772 599.472 645.837 594.876C645.311 593.801 644.986 592.639 644.878 591.447C644.623 583.537 652.422 583.49 655.785 588.44C659.464 593.854 660.61 600.361 667.112 603.471Z" fill="#FFB8B8"/>
<path d="M667.395 465C662.202 470.31 656.973 475.665 652.942 481.876C648.911 488.087 628.059 543.947 627.214 545.132C624.203 549.504 627.72 560.807 627.897 561.454C628.245 563.484 632.595 583.751 633.685 588.226C634.448 591.358 634.438 594.619 634.937 597.802C635.437 600.985 636.56 604.258 639.051 606.347C639.368 606.646 639.758 606.861 640.184 606.97C641.565 607.236 642.507 605.663 642.99 604.362C644.496 600.31 646.017 596.18 648.672 592.748C651.328 589.315 655.352 586.627 659.736 586.64C660.098 585.787 660.248 584.861 660.174 583.939C660.099 583.017 659.802 582.125 659.307 581.339C658.428 579.709 657.141 578.327 656.172 576.748C654.944 574.595 654.11 572.247 653.706 569.811C651.541 558.619 653.72 547.035 659.812 537.348C661.228 535.051 662.941 532.944 664.907 531.08C667.048 529.106 669.552 527.519 671.528 525.385C674.575 521.836 676.417 517.437 676.796 512.806C677.161 508.205 677.036 503.58 676.425 499.005C675.536 489.925 674.394 480.833 673.076 471.804C672.974 470.628 672.665 469.478 672.161 468.407C671.127 466.507 669.377 465.916 667.395 465Z" fill="#1B487F"/>
<path d="M665.772 465C660.783 470.273 655.758 475.59 651.885 481.758C648.012 487.925 627.978 543.391 627.166 544.567C624.274 548.909 627.652 560.132 627.823 560.775C628.157 562.79 632.337 582.915 633.384 587.359C634.117 590.469 634.107 593.707 634.587 596.867C635.067 600.027 636.146 603.277 638.539 605.351C638.844 605.649 639.219 605.862 639.627 605.971C640.955 606.234 641.859 604.672 642.324 603.38C643.771 599.357 645.232 595.256 647.783 591.848C650.334 588.44 654.201 585.771 658.413 585.784C658.761 584.936 658.905 584.017 658.834 583.101C658.762 582.186 658.476 581.301 658.001 580.52C657.157 578.901 655.919 577.529 654.989 575.961C653.809 573.823 653.007 571.492 652.619 569.073C650.539 557.96 652.633 546.458 658.486 536.838C659.847 534.557 661.492 532.465 663.381 530.614C665.438 528.654 667.844 527.079 669.743 524.96C672.67 521.436 674.44 517.068 674.804 512.469C675.154 507.901 675.035 503.308 674.447 498.765C673.593 489.75 672.496 480.721 671.23 471.756C671.132 470.588 670.835 469.446 670.351 468.383C669.357 466.497 667.676 465.91 665.772 465Z" fill="#1E508D"/>
<path d="M774.893 590.215C778.257 585.264 786.055 585.312 785.801 593.222C785.693 594.414 785.368 595.576 784.841 596.651C782.906 601.247 780.758 605.75 778.612 610.252L772.764 622.513C769.805 628.716 766.713 635.099 761.55 639.634C759.494 632.981 758.062 626.151 757.271 619.233C754.682 619.268 753.136 622.587 750.548 622.621C747.766 622.659 746.521 620.374 747.449 619.148C751.834 613.361 757.016 608.379 763.566 605.246C770.069 602.136 771.215 595.629 774.893 590.215Z" fill="#FFB8B8"/>
<path d="M760.322 472.589C759.838 473.638 759.54 474.762 759.442 475.913C758.173 484.747 757.073 493.643 756.217 502.526C755.628 507.002 755.509 511.528 755.859 516.029C756.224 520.56 757.998 524.864 760.932 528.337C762.835 530.424 765.246 531.977 767.307 533.908C769.2 535.732 770.85 537.793 772.213 540.041C778.079 549.519 780.177 560.852 778.093 571.802C777.703 574.186 776.9 576.483 775.718 578.589C774.785 580.135 773.545 581.486 772.7 583.081C772.223 583.851 771.937 584.723 771.865 585.625C771.793 586.527 771.937 587.433 772.286 588.268C776.507 588.255 780.382 590.885 782.939 594.243C785.496 597.602 786.96 601.642 788.41 605.606C788.876 606.879 789.782 608.418 791.112 608.159C791.522 608.052 791.898 607.842 792.203 607.548C794.602 605.505 795.683 602.303 796.164 599.189C796.645 596.075 796.635 592.884 797.37 589.82C798.419 585.441 802.607 565.612 802.943 563.626C803.114 562.993 806.5 551.934 803.601 547.656C802.787 546.498 782.71 491.845 778.828 485.768C774.947 479.691 769.912 474.452 764.911 469.256C763.003 470.153 761.319 470.731 760.322 472.589Z" fill="#1E508D"/>
<path d="M672.677 881.659C672.677 945.676 712.837 997.477 762.467 997.477Z" fill="#3F3D56"/>
<path d="M762.467 997.477C762.467 932.741 807.284 880.358 862.669 880.358Z" fill="#FFD08A"/>
<path d="M705.209 887.463C705.209 948.271 730.819 997.477 762.467 997.477Z" fill="#FFD08A"/>
<path d="M762.467 997.477C762.467 914.759 814.268 847.825 878.285 847.825Z" fill="#3F3D56"/>
<path d="M743.578 998.293C743.578 998.293 756.312 997.901 760.149 995.168C763.987 992.436 779.737 989.172 780.689 993.555C781.641 997.938 799.826 1015.35 785.449 1015.47C771.073 1015.58 752.045 1013.23 748.215 1010.9C744.384 1008.56 743.578 998.293 743.578 998.293Z" fill="#A8A8A8"/>
<path opacity="0.2" d="M785.706 1013.94C771.329 1014.06 752.301 1011.7 748.471 1009.37C745.554 1007.59 744.392 1001.22 744.003 998.277C743.734 998.288 743.578 998.293 743.578 998.293C743.578 998.293 744.384 1008.56 748.215 1010.9C752.045 1013.23 771.073 1015.58 785.449 1015.47C789.599 1015.44 791.033 1013.96 790.954 1011.77C790.377 1013.09 788.795 1013.92 785.706 1013.94Z" fill="black"/>
<path d="M361.586 881.849L375.827 889.616L366.765 919.393L352.525 920.687L344.756 903.857L361.586 881.849Z" fill="#FFB9B9"/>
<path d="M317.569 941.401V955.64L295.561 954.346L295.867 942.618L317.569 941.401Z" fill="#FFB9B9"/>
<path d="M366.764 710.957L358.997 808.055L334.399 950.462L295.561 945.283L308.506 832.652L303.328 729.083L366.764 710.957Z" fill="#2F2E41"/>
<path d="M263.195 638.459L356.408 639.753L366.765 710.958L303.328 740.734L287.793 797.697L366.765 881.848L335.694 920.686C335.694 920.686 291.677 861.134 259.311 827.474C226.945 793.813 242.481 691.538 242.481 691.538L263.195 638.459Z" fill="#2F2E41"/>
<path d="M318.864 454.622C334.594 454.622 347.345 441.871 347.345 426.141C347.345 410.411 334.594 397.659 318.864 397.659C303.134 397.659 290.382 410.411 290.382 426.141C290.382 441.871 303.134 454.622 318.864 454.622Z" fill="#FFB9B9"/>
<path d="M329.221 445.56V474.042L309.801 505.113C309.801 505.113 280.025 483.104 286.498 477.926C292.971 472.747 294.266 432.614 294.266 432.614L329.221 445.56Z" fill="#FFB9B9"/>
<path d="M329.22 468.864L348.64 492.167L340.872 653.994L280.025 652.699L269.668 511.586L282.614 475.337L291.494 463.254L307.212 486.988L329.22 468.864Z" fill="white"/>
<path d="M360.292 553.014L374.532 607.388L360.292 661.762L383.595 692.833L404.309 594.442C404.309 594.442 388.773 514.175 387.479 505.113C386.184 496.05 383.595 494.756 383.595 494.756L373.238 496.05L360.292 553.014Z" fill="#2F2E41"/>
<path d="M256.722 573.727L247.66 590.558L245.07 619.04L250.248 651.405L232.124 681.182L214 599.62L233.418 494.755H241.187L256.722 573.727Z" fill="#2F2E41"/>
<path d="M366.765 880.553C366.765 880.553 384.89 885.732 391.363 887.026C397.836 888.321 387.479 912.919 387.479 912.919C387.479 912.919 381.006 946.579 379.711 953.052C378.416 959.525 369.354 981.534 357.703 984.123C346.051 986.712 353.819 938.811 353.819 938.811C353.819 938.811 348.64 923.276 348.64 918.097C348.64 912.919 356.408 915.508 356.408 915.508C377.122 912.919 366.765 880.553 366.765 880.553Z" fill="#2F2E41"/>
<path d="M324.042 980.239C322.747 988.007 325.337 988.007 304.623 990.596C283.909 993.185 289.087 976.355 289.087 976.355C289.953 968.421 291.69 960.606 294.266 953.052C298.15 942.695 318.864 955.641 318.864 955.641C318.864 955.641 325.337 972.471 324.042 980.239Z" fill="#2F2E41"/>
<path d="M294.232 433.518L293.557 445.032C293.557 445.032 285.203 426.141 283.909 406.721C282.614 387.302 304.623 383.418 317.569 382.124C330.515 380.829 352.524 389.891 352.524 400.248C352.524 410.605 329.221 408.016 320.158 405.427C311.096 402.838 307.212 424.846 307.212 424.846L302.033 426.141L294.232 433.518Z" fill="#2F2E41"/>
<path d="M336.862 478.032L329.221 468.864L307.212 486.988L329.221 502.524L336.862 478.032Z" fill="white"/>
<path d="M282.614 475.337L291.677 463.685L307.212 486.988L287.793 501.229L282.614 475.337Z" fill="white"/>
<path d="M364.175 571.138L358.997 620.334L369.354 650.11L375.827 678.592C375.827 678.592 375.827 705.779 349.934 707.074C324.042 708.368 302.033 625.513 302.033 625.513C302.033 625.513 298.15 643.637 295.56 653.994C292.971 664.351 248.954 705.779 248.954 705.779C248.954 705.779 238.597 704.485 229.535 683.771C220.472 663.057 247.659 643.637 247.659 643.637L255.427 616.45L252.838 582.79L234.713 494.756L288.44 466.921L282.614 541.362L302.033 599.62L331.162 470.805L340.872 477.926L382.3 494.756L364.175 571.138Z" fill="#2F2E41"/>
<path d="M481.626 398.303C482.795 398.839 484.201 398.04 484.89 396.955C487.514 392.82 482.683 387.489 483.729 382.705C484.567 378.873 488.922 376.598 489.812 372.777C490.678 369.065 488.012 364.88 489.814 361.521C491.225 358.889 494.752 358.197 497.702 358.658C500.653 359.119 503.454 360.416 506.435 360.598C510.407 360.84 514.193 359.091 518.077 358.225C521.961 357.359 526.699 357.698 528.984 360.956C531.918 365.139 528.941 370.965 529.963 375.971C530.774 379.947 534.102 383.239 534.174 387.296C534.199 388.738 530.409 387.576 530.61 389.004C530.812 390.432 529.02 389.175 530.452 389.005C531.037 388.862 531.561 388.536 531.948 388.075C532.336 387.614 532.567 387.042 532.607 386.442C532.778 385.252 535.013 384.856 534.987 383.654C534.927 380.839 540.016 382.737 540.855 380.049C542.782 373.782 542.387 367.031 539.741 361.032C538.599 358.471 537.045 356.047 536.494 353.298C535.746 349.565 536.923 345.558 535.689 341.956C534.027 337.102 528.528 334.628 523.422 334.126C518.317 333.623 513.128 334.523 508.052 333.782C503.504 333.118 499.101 331.147 494.514 331.432C489.01 331.775 484.22 335.321 480.405 339.303C476.59 343.285 473.353 347.865 469.02 351.276C467.693 352.189 466.469 353.243 465.369 354.419C463.162 357.108 462.939 360.94 463.553 364.364C464.166 367.789 465.502 371.055 466.066 374.488C466.597 377.715 466.433 381.011 466.661 384.272C466.89 387.534 467.567 390.894 469.531 393.508C470.318 394.576 471.337 395.45 472.513 396.064C473.688 396.678 474.988 397.016 476.314 397.051C477.232 397.073 478.008 396.247 478.935 396.462C480.093 396.731 480.597 397.832 481.626 398.303Z" fill="#2F2E41"/>
<path d="M442.342 635.328L445.746 656.24L452.555 646.999L448.664 632.896L442.342 635.328Z" fill="#A0616A"/>
<path d="M446.719 477.272L441.358 491.399C441.358 491.399 436.02 563.352 436.02 568.702C436.02 574.051 439.91 642.623 441.369 645.541C441.369 645.541 447.692 636.301 455.959 637.76C464.227 639.219 460.822 613.444 460.822 613.444L468.604 549.735L467.145 517.637L446.719 477.272Z" fill="#1E508D"/>
<path opacity="0.1" d="M446.719 477.272L441.358 491.399C441.358 491.399 436.02 563.352 436.02 568.702C436.02 574.051 439.91 642.623 441.369 645.541C441.369 645.541 447.692 636.301 455.959 637.76C464.227 639.219 460.822 613.444 460.822 613.444L468.604 549.735L467.145 517.637L446.719 477.272Z" fill="#333333"/>
<path d="M479.789 399.46C479.789 399.46 495.838 440.311 486.598 448.093C477.357 455.874 538.148 434.962 538.148 434.962L536.689 429.612C536.689 429.612 516.75 421.831 526.476 399.46C536.203 377.089 479.789 399.46 479.789 399.46Z" fill="#A0616A"/>
<path opacity="0.1" d="M479.789 399.46C479.789 399.46 495.838 440.311 486.598 448.093C477.357 455.874 538.148 434.962 538.148 434.962L536.689 429.612C536.689 429.612 516.75 421.831 526.476 399.46C536.203 377.089 479.789 399.46 479.789 399.46Z" fill="black"/>
<path d="M454.5 945.118C454.5 945.118 447.692 943.173 443.801 948.036C439.91 952.899 425.321 965.058 425.321 965.058C425.321 965.058 397.114 962.14 393.223 976.243C389.332 990.347 437.479 990.347 449.151 986.942C460.822 983.538 463.254 986.942 463.254 986.942C463.254 986.942 499.242 989.86 499.242 984.024C499.242 978.188 495.838 958.249 495.838 958.249L454.5 945.118Z" fill="#1E508D"/>
<path d="M568.787 977.702L562.464 997.155C562.464 997.155 543.498 1023.42 554.197 1028.77C564.896 1034.12 602.83 1039.47 602.83 1025.36V998.614C602.83 998.614 598.939 979.647 595.048 977.702C591.158 975.757 568.787 977.702 568.787 977.702Z" fill="#1E508D"/>
<path d="M461.387 628.212C461.387 628.212 440.883 646.027 441.369 648.459C441.856 650.891 451.582 807.001 451.582 807.001L456.932 908.157C456.932 908.157 450.123 931.987 453.527 937.337C456.932 942.686 448.664 944.145 448.664 944.145C448.664 944.145 483.68 975.757 498.27 962.139L511.887 785.603L549.334 913.993C549.334 913.993 555.656 982.079 562.951 982.079C570.246 982.079 599.912 983.538 599.425 979.647C598.939 975.757 600.884 946.091 597.48 928.583C594.076 911.075 571.218 772.472 571.218 772.472C571.218 772.472 569.253 653.65 574.37 642.544C579.486 631.438 571.705 619.766 571.705 619.766L537.662 606.635L496.811 611.498L461.387 628.212Z" fill="#2F2E41"/>
<path d="M502.646 415.995C521.448 415.995 536.689 400.754 536.689 381.952C536.689 363.151 521.448 347.909 502.646 347.909C483.845 347.909 468.604 363.151 468.604 381.952C468.604 400.754 483.845 415.995 502.646 415.995Z" fill="#A0616A"/>
<path d="M585.322 455.388C583.64 450.629 580.805 446.362 577.071 442.967C573.337 439.573 568.82 437.156 563.923 435.935C554.114 433.467 544.518 430.214 535.23 426.208C535.23 426.208 500.701 442.743 493.892 442.743C487.084 442.743 487.084 438.366 487.084 438.366C487.084 438.366 469.576 456.847 460.336 458.792C451.096 460.737 437.479 483.595 442.342 496.239C445.645 504.345 450.427 511.767 456.445 518.124C456.445 518.124 454.5 586.209 460.822 598.854C460.822 598.854 445.26 628.52 459.85 630.465C474.439 632.41 530.367 625.602 540.093 632.41C549.82 639.219 567.814 630.951 570.246 640.191C572.677 649.432 578.027 651.377 578.027 651.377C578.027 651.377 586.294 638.246 581.431 630.465C576.568 622.684 585.322 455.388 585.322 455.388Z" fill="#1E508D"/>
<path d="M549.334 638.246L541.552 643.109C541.552 643.109 549.82 671.803 553.224 672.775C556.629 673.748 564.642 648.241 564.642 648.241L549.334 638.246Z" fill="#A0616A"/>
<path d="M475.79 394.899C476.959 395.435 478.365 394.636 479.054 393.55C481.678 389.416 476.847 384.085 477.893 379.301C478.731 375.468 483.086 373.194 483.976 369.373C484.842 365.66 482.176 361.476 483.978 358.117C485.389 355.485 488.916 354.792 491.866 355.253C494.817 355.715 497.618 357.012 500.599 357.193C504.571 357.436 508.357 355.687 512.241 354.821C516.125 353.954 520.863 354.293 523.148 357.552C526.082 361.735 523.106 367.561 524.127 372.567C524.938 376.543 534.181 379.333 535.019 376.645C536.946 370.378 536.551 363.626 533.905 357.628C532.763 355.067 531.209 352.643 530.658 349.893C529.91 346.161 531.087 342.154 529.853 338.552C528.191 333.698 522.692 331.224 517.586 330.721C512.481 330.219 507.292 331.118 502.216 330.377C497.668 329.713 493.265 327.743 488.678 328.028C483.174 328.371 478.384 331.917 474.569 335.899C470.754 339.881 467.517 344.461 463.184 347.872C461.857 348.785 460.633 349.838 459.534 351.014C457.327 353.704 457.103 357.535 457.717 360.96C458.331 364.384 459.667 367.651 460.231 371.084C460.761 374.31 460.597 377.606 460.825 380.868C461.054 384.13 461.731 387.49 463.695 390.104C464.482 391.171 465.501 392.045 466.677 392.659C467.852 393.274 469.152 393.611 470.478 393.647C471.396 393.668 472.172 392.843 473.099 393.058C474.257 393.327 474.761 394.427 475.79 394.899Z" fill="#2F2E41"/>
<path opacity="0.1" d="M566.112 463.898L581.918 455.387C581.918 455.387 620.337 546.817 611.097 572.106C601.857 597.395 566.355 649.432 566.355 649.432C566.355 649.432 538.148 643.596 541.066 637.76C543.984 631.924 562.951 594.477 564.41 589.613C565.869 584.75 575.595 553.139 571.218 549.735C566.842 546.33 558.331 467.302 558.331 467.302L566.112 463.898Z" fill="black"/>
<path d="M565.869 450.038L585.322 455.387C585.322 455.387 623.742 546.817 614.502 572.106C605.261 597.395 569.76 649.432 569.76 649.432C569.76 649.432 541.553 643.596 544.471 637.76C547.388 631.924 566.355 594.477 567.814 589.613C569.273 584.75 579 553.139 574.623 549.735C570.246 546.33 549.334 462.196 549.334 462.196L565.869 450.038Z" fill="#1E508D"/>
</g>
<defs>
<clipPath id="clip0">
<rect width="1027" height="1061" fill="white"/>
</clipPath>
</defs>
</svg>
