<?xml version="1.0" ?><svg viewBox="0 0 431.33 284.68" xmlns="http://www.w3.org/2000/svg"><defs><style>.cls-1{fill:#fbbd00;}.cls-2{fill:#020203;opacity:0.15;}.cls-3{fill:#139334;}.cls-4{fill:#0094da;}.cls-5{fill:#e2000f;}.cls-6{fill:#fff;}</style></defs><title/><g data-name="Capa 2" id="Capa_2"><g data-name="Capa 1" id="Capa_1-2"><polygon class="cls-1" points="29.56 197.27 247.64 284.68 431.33 186.24 226.71 112.44 29.56 197.27"/><polygon class="cls-2" points="93.09 195.27 15.34 166.52 0 176.15 23.05 83.39 187.73 85.67 230.45 127.41 93.09 195.27"/><polygon class="cls-3" points="96.03 113 93.09 195.27 243.17 247.64 246.94 142.14 96.03 113"/><polygon class="cls-4" points="243.17 247.64 295.69 224.96 297.41 143.47 329.9 127.35 329.78 211.7 368.05 189.63 371.31 98.66 306.23 38.63 247.13 137.09 243.17 247.64"/><polygon class="cls-5" points="73.65 107.99 258.42 146.51 312.04 38.84 126.67 8.36 73.65 107.99"/><polygon class="cls-1" points="136.13 0 318.22 29.44 389.51 95.62 371.31 98.66 310.29 42.37 126.67 8.36 136.13 0"/><polygon class="cls-6" points="295.69 224.96 297.41 143.47 329.9 127.35 329.78 211.7 295.69 224.96"/></g></g></svg>